<svg width="18" height="18" viewBox="0 0 18 18" fill="none" xmlns="http://www.w3.org/2000/svg">
<path d="M17.14 8.99986C17.14 13.4955 13.4956 17.1399 8.99998 17.1399C4.50439 17.1399 0.859985 13.4955 0.859985 8.99986C0.859985 4.50427 4.50439 0.859863 8.99998 0.859863C13.4956 0.859863 17.14 4.50427 17.14 8.99986Z" stroke="#454545" stroke-miterlimit="10" stroke-linecap="round"/>
<path d="M8.56028 5.84671C8.48252 5.84671 8.43176 5.79487 8.43176 5.71747V4.77499C8.43176 4.69759 8.48288 4.64575 8.56028 4.64575H9.43832C9.51572 4.64575 9.56756 4.69759 9.56756 4.77499V5.71747C9.56756 5.79487 9.51536 5.84671 9.43832 5.84671H8.56028ZM8.58656 13.4254C8.50916 13.4254 8.45768 13.374 8.45768 13.2966V7.37023C8.45768 7.29283 8.50952 7.24099 8.58656 7.24099H9.41276C9.49052 7.24099 9.542 7.29283 9.542 7.37023V13.2966C9.542 13.3743 9.49016 13.4254 9.41276 13.4254H8.58656Z" fill="#454545"/>
</svg>
