<svg width="14" height="13" viewBox="0 0 14 13" fill="none" xmlns="http://www.w3.org/2000/svg">
<path d="M12.7859 0.641486C12.5149 0.456563 12.1385 0.481355 11.8958 0.715862L11.8857 0.725625L11.8776 0.737096L4.97131 10.4981L2.03288 8.0499C1.76118 7.79172 1.3257 7.79307 1.05571 8.05395C0.781507 8.3189 0.781304 8.75041 1.05585 9.01501L1.05564 9.01523L1.06298 9.02145L4.51476 11.946C4.78429 12.2019 5.22475 12.2007 5.49272 11.9425L5.50248 11.9331L5.5104 11.9221L12.8872 1.66692C13.1238 1.42989 13.1463 1.06563 12.9547 0.804405C12.9546 0.796905 12.9537 0.79183 12.9524 0.78999L12.9451 0.781426L12.9417 0.777925L12.94 0.776176L12.9392 0.775365L12.9378 0.773993L12.8772 0.715532L12.8166 0.657172L12.8151 0.655818L12.8143 0.655027L12.8125 0.653355L12.8089 0.650177L12.8002 0.643271C12.7984 0.642068 12.7933 0.641367 12.7859 0.641486ZM12.9371 0.773434L12.9371 0.773412L12.9371 0.773434ZM12.8772 0.715862L12.8769 0.715619L12.8772 0.715862ZM12.843 0.751248L12.8446 0.749558L12.843 0.751248ZM12.8171 0.657794C12.817 0.657618 12.817 0.657648 12.8172 0.657815L12.8171 0.657794Z" fill="#FE330A" stroke="#FE330A" stroke-width="0.3"/>
</svg>
