<svg width="18" height="18" fill="none" xmlns="http://www.w3.org/2000/svg">
    <path d="M17.14 9A8.14 8.14 0 1 1 .86 9a8.14 8.14 0 0 1 16.28 0z" stroke="#454545" stroke-miterlimit="10" stroke-linecap="round"/>
    <path d="M8.56 5.847c-.077 0-.128-.052-.128-.13v-.942c0-.077.05-.13.128-.13h.878c.078 0 .13.053.13.13v.942c0 .078-.053.13-.13.13H8.56zm.027 7.578c-.078 0-.13-.051-.13-.128V7.37c0-.077.053-.129.13-.129h.826c.078 0 .129.052.129.13v5.926c0 .077-.052.128-.13.128h-.825z" fill="#454545"/>
</svg>
